<?xml version="1.0" standalone="no"?>
<!DOCTYPE svg PUBLIC "-//W3C//DTD SVG 20010904//EN"
 "http://www.w3.org/TR/2001/REC-SVG-20010904/DTD/svg10.dtd">
<svg version="1.0" xmlns="http://www.w3.org/2000/svg"
 width="234.000000pt" height="243.000000pt" viewBox="0 0 234.000000 243.000000"
 preserveAspectRatio="xMidYMid meet">

<g transform="translate(0.000000,243.000000) scale(0.100000,-0.100000)"
fill="#000000" stroke="none">
<path d="M1297 2387 c-4 -13 -37 -18 -37 -6 0 5 -5 9 -11 9 -15 0 -39 -26 -32
-34 4 -3 1 -6 -5 -6 -11 0 -16 13 -13 33 2 12 -34 8 -48 -5 -11 -10 -14 -10
-18 0 -7 19 -29 14 -46 -10 -14 -22 -15 -22 -35 -5 -14 13 -22 15 -27 7 -4 -6
-14 -9 -23 -7 -10 2 -29 -2 -44 -10 -15 -7 -34 -10 -42 -7 -10 4 -16 1 -16 -9
0 -10 -9 -13 -35 -10 -27 3 -35 0 -35 -13 0 -12 -6 -15 -21 -11 -20 5 -100
-28 -107 -45 -2 -4 -13 -8 -25 -8 -11 0 -29 -7 -39 -16 -17 -16 -17 -18 0 -30
9 -7 12 -14 5 -14 -6 0 -15 5 -18 10 -9 14 -46 12 -43 -2 2 -6 -6 -14 -17 -16
-20 -4 -20 -4 -1 17 11 11 24 21 29 21 6 0 20 8 31 19 29 25 92 57 185 92 19
7 30 14 24 16 -20 7 -188 -72 -273 -128 -47 -30 -114 -82 -148 -114 -77 -71
-221 -244 -185 -222 6 4 13 -2 16 -12 3 -12 -1 -22 -10 -25 -22 -9 -23 -8 -17
12 5 15 4 15 -10 -2 -11 -13 -12 -25 -6 -42 7 -17 6 -24 -3 -24 -28 -1 -39
-17 -28 -39 10 -18 8 -23 -14 -33 -31 -14 -32 -32 -3 -52 21 -15 21 -15 -7
-13 -22 1 -30 -3 -33 -18 -2 -11 -10 -35 -18 -53 -8 -18 -12 -37 -9 -42 3 -6
1 -10 -5 -10 -7 0 -10 -7 -7 -15 4 -8 1 -17 -4 -21 -6 -3 -9 -15 -6 -25 3 -10
1 -22 -4 -25 -13 -8 -11 -44 3 -44 6 0 4 -6 -6 -13 -11 -8 -17 -23 -14 -38 2
-20 8 -24 33 -22 24 1 31 -3 32 -18 2 -21 -26 -26 -43 -9 -14 14 -38 -14 -30
-35 5 -15 9 -14 36 1 33 20 45 15 35 -16 -5 -15 -12 -19 -26 -15 -34 11 -57
-3 -51 -30 5 -26 12 -31 27 -16 6 5 20 12 31 15 20 6 21 3 23 -44 0 -27 -4
-50 -9 -50 -16 0 -50 42 -43 54 4 7 3 8 -4 1 -16 -15 -26 -55 -14 -55 6 0 7
-14 4 -35 -3 -19 -3 -35 1 -35 3 0 23 12 44 27 l37 28 1 110 c0 108 35 327 55
350 5 5 9 16 9 24 0 25 81 195 106 222 13 14 24 30 24 37 0 7 5 12 10 12 6 0
10 6 10 14 0 7 7 19 15 26 9 8 12 17 6 24 -4 6 -8 18 -8 28 0 12 5 14 21 8 17
-6 32 2 77 44 104 95 183 149 295 202 154 73 296 100 474 90 141 -7 183 -14
265 -43 171 -62 321 -157 428 -273 37 -39 58 -55 66 -49 7 6 8 5 2 -2 -5 -7
10 -39 44 -87 81 -120 144 -262 115 -262 -6 0 -9 4 -5 9 6 11 -15 61 -27 61
-4 0 -8 7 -8 15 0 23 -64 141 -102 187 -91 112 -264 258 -363 307 -176 86
-290 114 -465 113 -199 -1 -367 -53 -546 -171 -118 -77 -260 -228 -320 -340
-13 -25 -28 -53 -34 -61 -11 -17 -69 -165 -77 -195 -36 -142 -45 -308 -18
-319 13 -5 14 -2 4 16 -8 14 -8 23 -2 25 6 2 8 29 6 64 -4 49 -2 60 9 53 11
-6 11 -5 0 8 -13 16 -7 48 9 48 4 0 6 7 3 15 -6 16 3 19 45 15 13 -1 27 4 32
11 4 8 11 10 15 6 4 -4 -3 -16 -16 -27 -23 -20 -23 -20 -2 -20 12 0 22 4 22 9
0 6 9 9 20 8 11 -1 20 -4 20 -8 0 -4 9 -11 20 -14 15 -5 20 -15 20 -41 0 -19
4 -34 9 -34 5 0 9 -20 9 -44 l0 -44 -86 -17 c-99 -20 -126 -31 -102 -38 32
-11 162 -27 170 -22 5 3 11 1 15 -5 4 -6 11 -8 16 -5 5 4 9 -1 9 -9 0 -9 5
-16 11 -16 5 0 7 -4 4 -10 -3 -5 -2 -18 4 -27 5 -10 11 -33 12 -52 4 -31 0
-37 -33 -55 -21 -12 -62 -36 -92 -53 -31 -18 -60 -33 -66 -33 -5 0 -10 -5 -10
-11 0 -6 -9 -9 -20 -6 -17 4 -19 1 -14 -21 9 -40 72 -168 120 -242 53 -82 196
-220 296 -285 42 -27 74 -53 71 -59 -4 -5 1 -7 11 -3 11 5 15 3 10 -5 -5 -8
-2 -9 9 -5 9 3 19 2 22 -4 4 -5 11 -6 17 -3 6 4 8 2 5 -3 -4 -6 0 -14 9 -17 9
-4 15 -9 12 -11 -10 -10 -119 45 -112 57 4 7 3 8 -4 4 -23 -14 -130 56 -222
146 -73 70 -115 123 -145 177 -11 20 -23 38 -26 41 -3 3 -24 39 -46 80 -58
107 -107 260 -84 260 6 0 15 -9 21 -20 6 -11 15 -18 20 -15 5 3 11 1 15 -5 3
-5 1 -10 -4 -10 -6 0 -11 -10 -10 -22 0 -15 3 -18 6 -8 4 8 12 20 18 27 22 22
27 81 11 115 -9 17 -16 37 -16 45 0 10 -6 12 -21 8 -18 -6 -20 -4 -15 13 4 13
1 22 -9 26 -10 3 -15 -1 -15 -13 0 -24 -27 -76 -32 -61 -2 6 -12 3 -25 -10
-12 -11 -29 -20 -38 -20 -27 0 -15 -55 12 -56 26 -1 73 -30 73 -44 0 -13 -4
-13 -45 4 -18 8 -36 12 -39 8 -13 -12 -5 -22 26 -35 31 -13 32 -14 11 -21 -24
-8 -31 -30 -13 -41 6 -4 20 5 32 20 19 25 21 25 33 8 19 -28 25 -73 9 -73 -8
0 -14 4 -14 9 0 4 -12 6 -26 3 -17 -3 -23 -9 -20 -19 3 -8 6 -17 6 -19 0 -2 9
-4 20 -4 22 0 26 -10 8 -28 -14 -14 6 -42 31 -42 15 -1 14 -2 -1 -13 -15 -12
-15 -15 4 -45 11 -18 25 -29 31 -25 6 4 7 1 3 -6 -5 -7 -2 -20 6 -29 8 -9 20
-29 28 -44 7 -16 17 -28 22 -28 4 0 8 -6 8 -13 0 -8 34 -50 76 -95 186 -201
439 -330 711 -363 243 -29 524 44 740 194 85 58 223 185 223 205 0 5 11 17 25
26 14 9 25 24 25 34 0 9 9 23 20 30 11 7 20 21 20 31 0 10 7 21 15 24 20 8 61
90 46 95 -18 6 -13 22 7 22 18 0 48 47 37 58 -3 3 -5 0 -5 -7 0 -7 -4 -9 -10
-6 -15 9 -12 25 4 25 14 0 46 36 46 51 0 3 -12 4 -26 1 -19 -3 -25 -1 -20 7 4
6 16 11 26 11 24 0 29 8 51 94 24 92 24 94 -6 88 -15 -2 -25 0 -25 7 0 6 11
11 24 11 23 0 36 16 36 46 0 7 -6 11 -14 8 -8 -3 -17 -1 -20 5 -4 5 2 12 13
16 10 3 21 17 24 31 4 23 2 25 -24 19 -23 -5 -29 -3 -29 10 0 9 7 16 18 14 35
-3 42 2 42 27 0 24 -3 26 -30 22 -19 -3 -29 -1 -27 6 2 6 15 11 28 11 23 1 24
3 21 60 -1 33 -5 67 -9 75 -3 8 -7 29 -8 45 -7 77 -71 279 -102 316 -7 8 -13
23 -13 31 0 9 -7 21 -15 28 -8 7 -15 16 -15 21 0 13 -57 100 -93 141 -60 69
-147 159 -147 151 0 -5 -4 -3 -8 3 -13 19 -143 114 -182 133 -38 18 -38 18
-59 -3 -18 -17 -21 -18 -21 -4 0 9 8 22 18 27 15 9 15 10 1 11 -9 0 -22 7 -29
15 -7 8 -23 15 -36 15 -13 0 -24 5 -24 12 0 9 -3 9 -12 0 -18 -18 -33 -15 -17
4 11 13 11 15 -2 13 -7 -2 -24 3 -37 10 -13 7 -29 10 -37 8 -7 -3 -17 -1 -23
5 -6 6 -12 6 -16 -1 -4 -6 -12 -11 -17 -11 -6 0 -8 4 -5 9 6 9 -8 14 -71 31
-21 5 -33 4 -36 -3z m58 -17 c-3 -5 -13 -10 -21 -10 -8 0 -12 5 -9 10 3 6 13
10 21 10 8 0 12 -4 9 -10z m125 -35 c-7 -8 -17 -15 -22 -15 -6 0 -5 7 2 15 7
8 17 15 22 15 6 0 5 -7 -2 -15z m120 -50 c-7 -9 -15 -13 -17 -11 -7 7 7 26 19
26 6 0 6 -6 -2 -15z m-277 -83 c29 1 56 7 60 13 5 6 7 4 4 -5 -2 -8 -11 -15
-19 -15 -24 0 -48 -25 -48 -51 0 -12 -4 -26 -10 -29 -6 -4 -10 10 -10 34 0 23
-4 41 -9 41 -14 0 -33 -28 -23 -34 12 -7 3 -56 -10 -56 -5 0 -7 -9 -3 -20 5
-15 3 -18 -9 -14 -19 7 -21 25 -3 43 10 11 8 11 -13 1 -23 -12 -24 -12 -11 4
8 9 11 19 7 23 -3 3 -6 1 -6 -7 0 -9 -3 -10 -14 -1 -11 9 -15 8 -20 -4 -3 -9
-10 -14 -15 -10 -5 3 2 17 16 32 24 23 25 27 10 38 -9 7 -17 18 -17 26 0 8 3
10 8 4 12 -17 49 -15 64 2 12 15 13 15 16 -1 3 -14 13 -16 55 -14z m397 18 c0
-5 -5 -10 -11 -10 -5 0 -7 5 -4 10 3 6 8 10 11 10 2 0 4 -4 4 -10z m-589 -29
c-8 -15 -7 -20 6 -26 15 -5 15 -7 3 -16 -11 -8 -12 -12 -2 -16 19 -8 4 -22
-18 -16 -12 3 -20 14 -20 25 0 17 -3 18 -15 8 -13 -10 -15 -9 -15 8 0 14 5 20
14 16 8 -3 16 3 19 15 3 12 12 21 21 21 13 0 15 -4 7 -19z m-591 -17 c0 -8
-13 -20 -30 -25 -16 -6 -30 -17 -30 -24 0 -15 -28 -40 -36 -32 -9 9 16 40 54
69 44 32 42 32 42 12z m452 -30 c5 -39 -7 -46 -16 -10 -3 13 -9 31 -12 40 -4
12 -2 15 9 10 8 -3 17 -21 19 -40z m60 17 c-1 -13 3 -30 9 -37 9 -11 8 -14 -4
-14 -23 0 -42 27 -28 43 8 10 7 17 -2 26 -10 10 -8 12 8 9 14 -3 19 -11 17
-27z m728 25 c0 -3 -4 -8 -10 -11 -5 -3 -10 -1 -10 4 0 6 5 11 10 11 6 0 10
-2 10 -4z m-356 -12 c9 -3 16 -10 16 -15 0 -6 -9 -5 -21 1 -33 18 -37 0 -5
-25 15 -12 24 -25 19 -28 -13 -8 -77 48 -69 61 8 13 35 16 60 6z m-497 -23
c-2 -10 -1 -25 4 -32 4 -7 5 -17 2 -22 -3 -5 -12 5 -19 23 -18 42 -18 50 2 50
11 0 15 -6 11 -19z m579 4 c4 -8 4 -22 0 -30 -4 -13 -9 -13 -25 -3 -15 9 -17
16 -10 30 12 22 28 23 35 3z m324 -9 c0 -3 -4 -8 -10 -11 -5 -3 -10 -1 -10 4
0 6 5 11 10 11 6 0 10 -2 10 -4z m-964 -17 c3 -6 2 -15 -4 -21 -6 -6 -11 -2
-15 11 -5 22 7 29 19 10z m-61 -9 c-4 -6 -2 -16 3 -23 15 -18 24 -57 15 -57
-13 0 -45 69 -38 81 4 5 11 9 16 9 6 0 7 -5 4 -10z m777 4 c3 -3 -3 -24 -15
-47 -11 -24 -22 -36 -25 -29 -2 8 1 19 7 25 6 6 11 21 11 34 0 22 10 30 22 17z
m308 -18 c0 -3 -4 -8 -10 -11 -5 -3 -10 -1 -10 4 0 6 5 11 10 11 6 0 10 -2 10
-4z m-1464 -25 c0 -11 -8 -22 -18 -24 -16 -5 -16 -3 -1 19 19 29 19 29 19 5z
m346 -52 c7 -4 6 -9 -2 -14 -8 -5 -20 1 -31 16 -13 16 -19 19 -19 9 -1 -35
-14 -41 -56 -26 -29 10 -35 16 -22 21 9 3 26 2 37 -5 22 -11 21 -12 25 38 1 7
8 17 16 22 11 7 18 1 28 -23 7 -17 18 -34 24 -38z m513 51 c3 -5 1 -10 -4 -10
-6 0 -11 5 -11 10 0 6 2 10 4 10 3 0 8 -4 11 -10z m-235 -15 c-7 -8 -18 -15
-24 -15 -6 0 -2 7 8 15 25 19 32 19 16 0z m60 5 c0 -5 -5 -10 -11 -10 -5 0 -7
5 -4 10 3 6 8 10 11 10 2 0 4 -4 4 -10z m-243 -22 c-3 -8 -6 -5 -6 6 -1 11 2
17 5 13 3 -3 4 -12 1 -19z m623 1 c0 -5 -11 -9 -25 -9 -24 0 -32 10 -19 22 8
8 44 -3 44 -13z m-111 -2 c8 -11 5 -13 -19 -9 -17 2 -30 8 -30 13 0 14 36 11
49 -4z m-1009 -27 c-6 -11 -15 -20 -20 -20 -6 0 -5 9 2 20 7 11 16 20 21 20 4
0 3 -9 -3 -20z m216 -6 c-4 -14 -19 -36 -34 -49 l-27 -23 24 -25 c13 -14 22
-30 20 -35 -2 -5 -18 6 -35 24 l-31 33 39 38 c21 20 38 43 38 50 0 7 3 13 6
13 3 0 3 -12 0 -26z m614 15 c0 -5 -5 -7 -12 -3 -7 4 -8 3 -4 -4 4 -7 14 -12
22 -12 8 0 14 -4 14 -10 0 -5 -7 -10 -15 -10 -8 0 -15 5 -15 10 0 6 -10 10
-21 10 -18 0 -19 2 -9 15 14 17 40 20 40 4z m310 -20 c0 -5 -4 -9 -10 -9 -5 0
-10 7 -10 16 0 8 5 12 10 9 6 -3 10 -10 10 -16z m234 -7 c-1 -7 -2 -28 -2 -47
-1 -19 -6 -35 -12 -35 -5 0 -9 22 -7 50 1 28 6 48 12 47 6 -2 10 -9 9 -15z
m246 3 c-7 -8 -17 -15 -22 -15 -6 0 -5 7 2 15 7 8 17 15 22 15 6 0 5 -7 -2
-15z m-290 -10 c-7 -9 -15 -13 -19 -10 -3 3 1 10 9 15 21 14 24 12 10 -5z
m-1380 -39 c-26 -27 -37 -13 -15 20 13 21 19 24 26 13 5 -9 2 -21 -11 -33z
m1174 23 c8 -9 6 -9 -9 -2 -11 6 -26 8 -32 6 -7 -3 -13 0 -13 6 0 12 40 5 54
-10z m66 -27 c-6 -2 -10 -11 -10 -20 0 -13 -4 -11 -21 6 -25 28 -17 44 16 29
13 -7 20 -13 15 -15z m-163 -26 c-3 -7 -17 -16 -31 -18 -23 -5 -26 -2 -24 21
2 16 11 28 23 32 22 6 40 -14 32 -35z m57 36 c2 -4 7 -24 11 -45 6 -29 4 -37
-8 -37 -9 0 -15 9 -14 23 1 12 -2 32 -7 45 -7 21 6 32 18 14z m581 -11 c-3 -6
-11 -11 -17 -11 -6 0 -6 6 2 15 14 17 26 13 15 -4z m-758 -28 c3 -7 -4 -9 -19
-6 -19 5 -21 3 -10 -8 17 -18 15 -27 -8 -34 -11 -3 -20 -13 -20 -21 0 -8 -7
-14 -15 -14 -8 0 -15 -4 -15 -10 0 -5 -11 -20 -25 -34 -14 -14 -25 -21 -25
-16 0 6 -5 10 -11 10 -5 0 -7 -4 -4 -10 4 -6 -8 -10 -29 -10 -20 0 -36 5 -36
10 0 6 -9 10 -20 10 -11 0 -20 5 -20 10 0 6 7 10 15 10 8 0 15 4 15 9 0 4 13
7 29 5 17 -2 31 2 34 9 7 18 -48 21 -100 5 -43 -12 -58 -28 -27 -28 14 0 14
-3 4 -15 -7 -8 -18 -15 -25 -15 -7 0 -15 -6 -18 -14 -3 -8 -35 -29 -72 -47
-63 -31 -88 -49 -66 -49 5 0 13 5 17 11 3 6 17 8 31 4 15 -3 32 0 41 7 13 11
15 10 9 -4 -9 -26 0 -22 41 17 20 19 31 35 25 35 -22 0 -14 14 14 28 36 16 53
15 29 -3 -11 -8 -14 -15 -8 -15 19 0 14 -18 -7 -25 -11 -3 -48 -32 -82 -65
-47 -44 -63 -66 -64 -87 0 -16 -6 -27 -13 -26 -6 2 -9 -4 -5 -13 3 -9 0 -20
-8 -24 -28 -18 2 -22 43 -7 51 20 63 15 16 -7 -18 -9 -39 -25 -46 -37 -8 -12
-9 -18 -3 -14 6 3 11 -1 11 -9 0 -10 -9 -16 -22 -17 -22 0 -22 -1 -3 -9 18 -8
17 -9 -7 -9 -25 -1 -26 1 -18 29 5 17 6 30 4 30 -9 0 -54 -54 -69 -82 -9 -16
-20 -28 -25 -28 -16 0 -11 31 11 67 22 35 20 54 -4 34 -8 -6 -22 -9 -31 -5
-12 5 -15 2 -10 -10 7 -19 -14 -49 -28 -40 -6 4 -14 0 -19 -7 -12 -20 -11 -30
4 -27 6 2 13 -2 15 -7 1 -6 -6 -10 -15 -10 -14 0 -18 8 -18 33 0 33 -12 41
-33 20 -7 -7 -12 -9 -12 -4 0 10 27 36 37 36 5 0 20 19 33 43 l24 42 -24 -18
c-35 -25 -50 -30 -58 -23 -9 9 14 42 27 38 6 -1 11 2 11 8 0 15 -15 12 -42
-10 -24 -18 -38 -18 -38 2 0 4 6 8 14 8 7 0 19 7 26 15 9 10 9 15 1 15 -6 0
-11 -5 -11 -11 0 -5 -4 -7 -10 -4 -5 3 -21 -2 -35 -11 -15 -10 -25 -12 -25 -5
0 6 5 11 10 11 6 0 10 7 10 15 0 9 6 12 15 9 23 -9 47 14 32 31 -7 7 -15 11
-18 9 -3 -2 -21 -6 -40 -9 l-34 -6 23 21 c26 24 28 32 7 23 -9 -3 -15 -2 -14
3 4 22 -2 35 -12 28 -17 -10 0 57 22 85 23 29 24 24 3 -18 -20 -40 -11 -53 10
-14 17 32 21 18 6 -23 -16 -42 -3 -41 17 2 22 49 78 121 106 136 21 11 21 11
4 -16 -21 -32 -12 -34 20 -4 35 33 27 8 -12 -37 -38 -44 -42 -57 -21 -74 12
-10 19 -6 37 18 13 17 26 31 31 31 15 0 8 -20 -13 -41 -15 -15 -18 -24 -10
-32 6 -6 11 -7 11 -2 0 6 4 4 9 -4 8 -12 12 -12 26 2 9 10 28 17 43 17 23 1
25 2 9 11 -23 14 -5 49 25 49 21 0 21 0 2 -15 -18 -14 -18 -15 8 -11 42 7 55
18 32 26 -15 6 -5 14 51 41 68 32 69 33 37 37 -19 2 -47 -1 -63 -7 -23 -8 -29
-7 -29 4 0 12 -9 11 -45 -5 -25 -11 -45 -15 -45 -11 0 11 48 31 81 35 14 1 29
5 34 7 6 3 29 7 53 8 46 3 115 31 77 31 -20 1 -20 1 -1 15 13 10 15 15 6 15
-7 0 -11 3 -7 6 11 11 66 -7 61 -20 -6 -16 46 -29 61 -15 5 6 5 9 -3 9 -7 0
-12 5 -12 10 0 6 13 10 29 10 18 0 34 8 44 23 14 19 18 20 26 7 9 -13 11 -13
11 3 0 15 3 16 32 4 17 -7 33 -18 35 -24z m-687 17 c0 -5 -4 -10 -10 -10 -5 0
-10 5 -10 10 0 6 5 10 10 10 6 0 10 -4 10 -10z m381 -10 c-29 -25 -42 -26 -34
-2 5 14 3 14 -9 -2 -9 -11 -24 -21 -34 -22 -10 -2 -29 -9 -43 -16 -20 -11 -25
-11 -29 0 -3 10 -7 10 -20 0 -10 -7 -14 -9 -10 -4 4 5 3 17 -2 26 -12 22 11
35 29 17 8 -8 11 -8 11 1 0 7 5 12 11 12 5 0 7 -4 4 -10 -8 -13 -8 -13 40 5
22 8 56 14 75 14 l35 0 -24 -19z m129 10 c0 -5 -9 -10 -21 -10 -11 0 -17 5
-14 10 3 6 13 10 21 10 8 0 14 -4 14 -10z m713 -35 c-14 -30 -33 -47 -33 -30
0 15 35 73 41 69 5 -3 1 -20 -8 -39z m-1527 10 c2 -15 -25 -30 -35 -19 -3 4 0
9 7 11 6 3 12 12 12 21 0 18 13 8 16 -13z m335 2 c-10 -9 -11 -8 -5 6 3 10 9
15 12 12 3 -3 0 -11 -7 -18z m969 13 c0 -5 -5 -10 -11 -10 -5 0 -7 5 -4 10 3
6 8 10 11 10 2 0 4 -4 4 -10z m-66 -31 c13 -26 13 -29 1 -19 -8 7 -15 9 -15 4
0 -4 -5 -3 -11 3 -10 10 -6 43 5 43 2 0 11 -14 20 -31z m187 -25 c4 -5 26 -29
49 -53 38 -42 40 -45 24 -62 -10 -11 -21 -19 -26 -19 -5 0 -26 -11 -49 -25
-45 -29 -55 -26 -75 21 -20 47 -17 86 7 137 23 47 22 47 70 1z m364 26 c-3 -5
-10 -10 -16 -10 -5 0 -9 5 -9 10 0 6 7 10 16 10 8 0 12 -4 9 -10z m-210 -54
c-17 -40 -32 -44 -19 -4 9 27 11 34 13 50 1 8 4 9 11 2 7 -7 5 -23 -5 -48z
m-1045 19 c0 -9 -12 -20 -26 -25 -15 -6 -38 -19 -52 -30 -32 -26 -43 -25 -38
3 2 12 8 21 12 20 7 -1 57 22 102 46 1 0 2 -6 2 -14z m-417 -25 c-10 -11 -19
-20 -21 -20 -1 0 2 9 8 20 6 11 15 20 20 20 6 0 2 -9 -7 -20z m1712 1 c-3 -6
-11 -11 -17 -11 -6 0 -6 6 2 15 14 17 26 13 15 -4z m-1812 -8 c-4 -11 -8 -11
-21 -1 -13 11 -14 10 -7 -11 6 -21 5 -22 -8 -10 -10 9 -12 18 -5 26 13 16 47
12 41 -4z m122 -13 c-10 -11 -20 -18 -23 -15 -7 6 18 35 31 35 5 0 2 -9 -8
-20z m939 -29 l-6 -39 51 5 c30 3 57 0 65 -6 7 -6 16 -8 19 -4 4 3 7 -3 7 -15
0 -11 9 -36 20 -54 l20 -34 -30 -18 c-17 -9 -34 -15 -39 -12 -4 3 -17 -1 -27
-9 -19 -14 -19 -14 1 -15 15 0 17 -2 6 -9 -8 -5 -10 -14 -6 -21 5 -8 3 -11 -6
-8 -8 3 -14 11 -14 19 0 8 -9 13 -23 12 -12 -2 -22 1 -22 6 0 6 -9 9 -19 8
-10 0 -17 -6 -14 -13 2 -6 -12 -24 -32 -39 -19 -16 -35 -36 -35 -44 0 -14 -1
-14 -10 -1 -8 12 -10 11 -10 -7 0 -13 -5 -23 -11 -23 -5 0 -8 4 -5 9 11 17
-34 19 -55 2 -39 -32 -23 -92 29 -112 16 -6 22 -14 18 -25 -3 -8 -2 -13 3 -10
5 3 11 0 14 -8 3 -9 15 -12 31 -9 15 3 26 1 26 -6 0 -6 -7 -11 -15 -11 -9 0
-26 -7 -40 -16 -21 -14 -24 -14 -33 1 -8 15 -10 14 -24 -7 -21 -32 -31 -68
-20 -68 6 0 12 4 14 10 2 6 14 4 31 -5 15 -7 27 -10 27 -4 0 5 5 9 10 9 6 0
10 -6 10 -14 0 -8 11 -13 26 -13 14 0 31 -6 37 -12 8 -8 7 -11 -4 -11 -10 0
-15 -9 -14 -27 0 -22 6 -28 32 -34 33 -6 43 10 14 22 -10 4 -11 8 -4 12 6 4
18 0 27 -8 8 -8 17 -11 21 -6 3 5 -4 12 -15 16 -11 3 -20 11 -20 16 0 6 -4 7
-10 4 -5 -3 -10 4 -10 15 0 14 5 20 13 17 8 -3 49 -1 92 4 68 7 82 6 98 -8 24
-22 36 -5 31 43 -1 18 1 36 7 39 5 4 9 1 9 -5 0 -6 5 -8 11 -4 8 4 8 1 1 -12
-5 -11 -13 -37 -16 -59 -4 -21 -14 -47 -23 -57 -12 -13 -13 -18 -3 -18 19 0
-32 -45 -66 -57 -16 -6 -47 -11 -69 -11 -27 0 -34 3 -21 7 30 11 2 24 -35 16
-18 -4 -36 -2 -44 5 -8 6 -19 9 -25 5 -6 -3 -10 3 -10 14 0 17 -6 21 -35 21
-31 0 -40 7 -37 32 3 18 -29 14 -48 -7 -21 -22 -24 -23 -46 -8 -13 8 -30 13
-38 10 -8 -3 -17 1 -20 9 -3 8 -12 14 -21 14 -8 0 -15 4 -15 8 0 4 9 8 20 8
11 0 20 -4 20 -8 0 -5 12 4 28 20 15 15 24 23 20 18 -13 -17 -9 -24 12 -19 22
6 24 11 11 32 -6 9 -16 11 -32 6 l-24 -7 23 24 c14 15 20 31 16 41 -4 12 -1
17 12 17 18 1 18 1 2 11 -10 5 -15 16 -12 24 4 10 0 15 -12 15 -15 0 -19 8
-20 36 -1 24 1 31 7 23 8 -13 13 -5 10 14 0 4 2 6 6 6 18 -3 33 2 33 10 0 15
-33 22 -42 9 -6 -9 -8 -7 -5 7 2 11 9 19 15 18 7 -2 12 2 12 8 0 6 -8 9 -18 7
-24 -7 -42 15 -36 43 2 13 1 18 -2 11 -5 -10 -9 -10 -21 -1 -12 10 -16 10 -23
-1 -5 -8 -11 -12 -15 -9 -10 10 36 59 55 59 11 0 24 9 30 19 12 24 47 36 63
22 7 -5 19 -9 27 -7 31 5 60 18 60 26 0 4 -10 6 -22 2 -20 -5 -21 -4 -9 11 7
9 11 23 8 31 -3 8 -1 16 4 18 6 2 11 10 12 18 5 33 18 42 33 23 13 -17 14 -17
8 1 -6 15 -3 17 17 11 18 -5 20 -4 9 4 -17 12 -10 21 18 24 12 0 18 6 15 14
-3 7 0 13 6 13 7 0 9 -13 5 -39z m-449 9 c-11 -5 -29 -9 -40 -9 l-20 0 20 9
c11 5 29 9 40 9 l20 0 -20 -9z m-465 -20 c-19 -15 -22 -22 -13 -31 9 -9 16 -4
31 20 11 18 22 29 25 24 3 -4 -8 -23 -23 -42 l-28 -33 -32 29 c-21 20 -28 33
-21 37 6 4 11 2 11 -3 0 -6 7 -11 15 -11 8 0 15 7 15 15 0 9 9 15 23 15 22 0
22 0 -3 -20z m130 16 c0 -2 -7 -7 -16 -10 -8 -3 -12 -2 -9 4 6 10 25 14 25 6z
m220 -16 c-14 -10 -27 -17 -29 -14 -6 5 31 33 44 33 6 1 -1 -8 -15 -19z m600
10 c0 -5 -4 -10 -10 -10 -5 0 -10 5 -10 10 0 6 5 10 10 10 6 0 10 -4 10 -10z
m40 6 c0 -3 -4 -8 -10 -11 -5 -3 -10 -1 -10 4 0 6 5 11 10 11 6 0 10 -2 10 -4z
m-1185 -17 c8 -12 -36 -80 -49 -76 -19 6 -16 22 6 32 27 12 39 41 13 31 -15
-5 -16 -4 -5 9 15 18 26 19 35 4z m465 -18 c0 -11 -3 -12 -8 -4 -9 15 -24 5
-40 -27 -7 -14 -10 -17 -8 -7 3 9 1 17 -4 17 -4 0 1 11 13 24 23 26 47 24 47
-3z m1266 -7 c3 -13 10 -24 14 -24 7 0 19 -28 25 -55 1 -5 7 -23 13 -38 15
-36 16 -34 -10 -40 -13 -4 -26 -1 -30 6 -13 21 -9 30 8 16 14 -12 16 -11 13 6
-2 11 -15 25 -29 32 -13 7 -28 20 -32 30 -5 11 -7 4 -4 -19 6 -51 -6 -48 -32
10 -15 31 -21 38 -17 19 5 -26 4 -28 -16 -22 -17 6 -20 3 -17 -12 2 -10 10
-17 16 -15 7 1 12 -3 12 -9 0 -5 5 -7 10 -4 6 3 10 2 10 -4 0 -5 10 -13 23
-17 l22 -7 -23 -10 c-15 -7 -21 -16 -17 -28 10 -31 -76 -57 -88 -26 -3 7 -6 5
-6 -5 -1 -11 -9 -18 -21 -18 -11 0 -29 -5 -39 -11 -15 -10 -22 -8 -40 10 -25
25 -27 33 -5 29 11 -2 18 5 21 21 3 24 3 24 -19 5 -22 -19 -23 -19 -8 1 8 11
40 49 71 85 46 52 66 68 102 77 30 8 46 19 50 33 7 26 35 16 43 -16z m-1236
-43 c-12 -24 -29 -28 -26 -7 3 20 30 50 34 38 2 -6 -2 -20 -8 -31z m-425 4 c0
-14 -6 -27 -12 -30 -14 -5 -13 21 0 43 11 17 12 16 12 -13z m620 15 c-3 -5
-14 -10 -23 -10 -15 0 -15 2 -2 10 20 13 33 13 25 0z m1220 -25 c-39 -30 -48
-22 -10 10 15 14 31 23 34 20 3 -3 -8 -17 -24 -30z m-1791 0 c13 -9 28 -14 32
-13 9 3 14 -5 14 -23 0 -6 -8 -8 -19 -4 -14 4 -23 0 -30 -14 -14 -26 -14 -31
4 -31 8 0 15 -4 15 -10 0 -13 -19 -13 -59 1 -35 12 -37 36 -3 31 22 -3 44 39
23 46 -11 4 -16 32 -6 32 3 0 16 -7 29 -15z m1402 -1 c-3 -9 -6 -23 -6 -32 0
-12 -3 -13 -11 -5 -13 13 -3 53 13 53 5 0 7 -7 4 -16z m-576 -34 c0 -13 -12
-19 -26 -13 -21 8 -17 22 6 20 11 -1 20 -4 20 -7z m540 0 c0 -5 -2 -10 -4 -10
-3 0 -8 5 -11 10 -3 6 -1 10 4 10 6 0 11 -4 11 -10z m-1310 -45 c0 -8 -4 -15
-10 -15 -5 0 -7 7 -4 15 4 8 8 15 10 15 2 0 4 -7 4 -15z m557 -5 c4 -13 3 -13
-5 -1 -8 11 -14 12 -24 4 -19 -15 -48 -24 -48 -14 0 11 41 30 59 28 8 -1 16
-9 18 -17z m-707 -2 c0 -4 -4 -8 -9 -8 -6 0 -12 4 -15 8 -3 5 1 9 9 9 8 0 15
-4 15 -9z m-110 -18 c-13 -8 -13 -10 -1 -10 8 0 12 -2 9 -5 -8 -8 -38 6 -38
17 0 5 4 7 9 3 5 -3 13 0 16 6 4 5 10 8 13 4 4 -3 0 -10 -8 -15z m285 1 c3 -5
1 -12 -5 -16 -5 -3 -10 1 -10 9 0 18 6 21 15 7z m1754 -12 c27 15 27 0 0 -18
-18 -11 -23 -11 -30 1 -5 7 -9 18 -9 23 0 6 4 4 9 -4 7 -10 13 -11 30 -2z
m-1935 -23 c-4 -17 0 -27 13 -35 16 -9 15 -10 -9 -11 -19 0 -28 -5 -28 -17 0
-9 -3 -14 -6 -10 -4 3 -2 20 4 36 9 27 9 31 -6 31 -12 0 -10 4 8 14 14 8 26
14 28 15 1 1 0 -10 -4 -23z m196 -6 c0 -5 -5 -10 -11 -10 -5 0 -7 5 -4 10 3 6
8 10 11 10 2 0 4 -4 4 -10z m1090 0 c0 -5 -10 -10 -22 -9 -22 0 -22 1 -3 9 11
5 21 9 23 9 1 1 2 -3 2 -9z m-50 -20 c0 -11 -2 -20 -5 -20 -3 0 -14 9 -25 20
l-20 20 25 0 c18 0 25 -5 25 -20z m-1369 -20 c5 0 9 -4 9 -8 0 -5 -13 -7 -30
-4 -16 2 -27 9 -24 14 3 5 13 7 21 4 8 -3 19 -6 24 -6z m1284 0 c3 -5 1 -19
-5 -30 -10 -18 -13 -19 -25 -6 -18 18 -19 33 -2 39 19 8 25 8 32 -3z m-1085
-10 c0 -5 -4 -10 -10 -10 -5 0 -10 5 -10 10 0 6 5 10 10 10 6 0 10 -4 10 -10z
m713 -10 c3 -11 2 -22 -3 -25 -4 -3 -10 6 -12 20 -6 30 7 34 15 5z m-44 -7
c-13 -17 -48 -50 -77 -74 -7 -6 -16 -8 -19 -5 -4 4 4 14 16 24 13 9 35 29 49
45 28 30 53 38 31 10z m315 -4 c-3 -5 -1 -9 4 -9 6 0 12 7 16 15 3 8 10 15 16
15 20 0 9 -19 -23 -38 l-34 -19 0 27 c0 19 5 26 14 23 7 -3 10 -9 7 -14z m906
11 c0 -5 -7 -10 -15 -10 -8 0 -15 5 -15 10 0 6 7 10 15 10 8 0 15 -4 15 -10z
m-1770 -19 c0 -6 -4 -13 -10 -16 -5 -3 -10 1 -10 9 0 9 5 16 10 16 6 0 10 -4
10 -9z m1010 -1 c-8 -5 -19 -10 -25 -10 -5 0 -3 5 5 10 8 5 20 10 25 10 6 0 3
-5 -5 -10z m511 -30 c-4 -3 -10 -15 -14 -28 -4 -19 -2 -22 14 -17 13 5 19 2
19 -10 0 -9 5 -13 10 -10 6 3 10 2 10 -4 0 -5 -4 -13 -10 -16 -5 -3 -10 -15
-10 -26 0 -13 4 -18 12 -13 8 5 9 2 5 -10 -4 -10 -7 -22 -7 -27 0 -5 -12 -1
-27 8 -15 10 -24 12 -20 6 6 -10 -3 -13 -37 -13 -32 0 -48 5 -55 18 -6 9 -11
11 -11 5 0 -7 -9 -13 -21 -13 -14 0 -19 5 -16 14 4 10 1 13 -9 9 -9 -3 -15 2
-15 16 -1 12 -2 26 -3 33 -1 6 5 13 13 16 10 3 12 0 8 -11 -4 -11 -2 -14 8
-11 7 3 23 -4 35 -16 12 -12 23 -20 25 -18 6 5 -31 60 -39 59 -3 -1 -7 2 -7 7
-2 11 43 32 69 32 12 0 22 6 22 13 0 19 43 38 52 23 4 -6 3 -13 -1 -16z
m-1858 -53 c-5 -49 -5 -48 -23 -37 -12 8 -12 14 2 43 15 32 15 36 0 53 -16 18
-16 18 5 0 17 -14 20 -25 16 -59z m2152 53 c-3 -5 -11 -10 -16 -10 -6 0 -7 5
-4 10 3 6 11 10 16 10 6 0 7 -4 4 -10z m-1262 -22 c-13 -12 -25 -19 -29 -15
-10 10 16 37 34 37 13 0 12 -4 -5 -22z m1227 12 c0 -5 -5 -10 -11 -10 -5 0 -7
5 -4 10 3 6 8 10 11 10 2 0 4 -4 4 -10z m-1770 -4 c0 -2 -7 -7 -16 -10 -8 -3
-12 -2 -9 4 6 10 25 14 25 6z m57 -28 c-3 -8 -6 -5 -6 6 -1 11 2 17 5 13 3 -3
4 -12 1 -19z m499 -14 c-30 -21 -45 -16 -16 6 14 10 27 16 30 13 3 -2 -4 -11
-14 -19z m-536 6 c0 -5 11 -10 25 -10 14 0 25 5 25 10 0 6 5 10 11 10 5 0 7
-4 4 -10 -11 -18 5 -31 26 -20 23 13 25 3 2 -22 -13 -14 -13 -18 -2 -18 11 0
14 -16 14 -65 0 -50 -3 -64 -13 -60 -7 2 -15 -2 -18 -10 -4 -8 -11 -12 -17 -8
-6 4 -7 -4 -3 -23 6 -25 5 -27 -7 -14 -20 21 -37 91 -30 119 5 18 3 22 -7 16
-8 -5 -11 -22 -7 -50 5 -47 0 -60 -23 -60 -20 0 -39 33 -40 68 0 26 20 40 20
15 1 -7 10 4 21 26 15 27 18 41 10 49 -14 14 -14 67 -1 67 6 0 10 -4 10 -10z
m1788 -12 c-6 -17 -36 -34 -45 -24 -4 4 1 14 11 22 24 17 39 18 34 2z m-1223
-17 c-3 -6 -14 -11 -23 -11 -15 1 -15 2 2 15 21 16 32 13 21 -4z m600 -11 c3
-5 -1 -10 -9 -10 -8 0 -18 5 -21 10 -3 6 1 10 9 10 8 0 18 -4 21 -10z m-150
-10 c3 -5 -1 -10 -9 -10 -9 0 -16 5 -16 10 0 6 4 10 9 10 6 0 13 -4 16 -10z
m-435 -9 c0 -5 -7 -12 -16 -15 -24 -9 -28 -7 -14 9 14 17 30 20 30 6z m-370
-31 c-16 -30 -12 -88 10 -132 23 -48 23 -48 11 -48 -5 0 -18 22 -30 49 -30 71
-28 167 5 154 10 -4 11 -10 4 -23z m1040 -25 c0 -3 -7 -5 -16 -5 -8 0 -13 4
-9 9 3 5 1 12 -5 16 -5 3 -10 11 -10 17 0 7 9 2 20 -10 11 -12 20 -24 20 -27z
m-1065 -130 c10 -16 30 -42 44 -57 29 -33 19 -36 -27 -8 -41 25 -74 78 -65
105 4 11 8 43 9 70 3 72 6 69 13 -10 4 -41 15 -82 26 -100z m246 149 c17 -8
29 -17 27 -20 -3 -2 -19 3 -36 12 -21 10 -43 13 -63 9 -22 -5 -29 -4 -25 4 10
16 62 13 97 -5z m1369 1 c-14 -17 -40 -20 -40 -6 0 5 10 12 23 14 12 2 24 5
26 6 2 0 -2 -6 -9 -14z m-790 -26 c0 -11 -27 -12 -34 0 -3 4 -3 11 0 14 8 8
34 -3 34 -14z m-780 -7 c0 -25 33 -117 49 -136 8 -10 9 -16 3 -16 -6 0 -22 19
-36 43 -28 48 -45 127 -27 127 6 0 11 -8 11 -18z m970 8 c0 -5 -2 -10 -4 -10
-3 0 -8 5 -11 10 -3 6 -1 10 4 10 6 0 11 -4 11 -10z m-1073 -47 c-3 -10 -5 -4
-5 12 0 17 2 24 5 18 2 -7 2 -21 0 -30z m143 10 c-1 -24 -2 -26 -11 -10 -5 9
-7 22 -4 27 10 17 15 11 15 -17z m525 17 c-3 -5 -12 -10 -18 -10 -7 0 -6 4 3
10 19 12 23 12 15 0z m-467 -29 c9 -25 8 -29 -4 -24 -8 3 -14 16 -14 29 0 32
6 30 18 -5z m957 19 c3 -6 -1 -13 -10 -16 -19 -8 -30 0 -20 15 8 14 22 14 30
1z m-894 -31 c34 -36 36 -44 10 -30 -19 10 -57 61 -45 61 3 0 19 -14 35 -31z
m441 -5 c-7 -12 -11 -13 -17 -4 -4 7 -2 16 6 21 18 11 23 4 11 -17z m92 14
c-3 -5 -13 -8 -22 -6 -10 1 -23 -1 -30 -6 -7 -4 -16 -5 -20 -1 -3 3 -1 10 6
14 18 11 72 10 66 -1z m246 -28 c0 -5 -4 -10 -10 -10 -5 0 -10 5 -10 10 0 6 5
10 10 10 6 0 10 -4 10 -10z m-670 -10 c0 -5 -4 -10 -10 -10 -5 0 -10 5 -10 10
0 6 5 10 10 10 6 0 10 -4 10 -10z m1014 1 c4 -5 19 -7 35 -5 19 3 30 0 34 -10
7 -17 -23 -31 -33 -15 -6 8 -9 8 -14 0 -4 -6 -2 -11 3 -11 7 0 7 -7 -1 -20 -8
-13 -20 -19 -30 -16 -16 4 -24 -10 -19 -37 1 -5 -3 -6 -9 -2 -5 3 -10 13 -10
20 0 9 -6 12 -16 8 -15 -5 -15 -7 0 -15 19 -11 21 -38 3 -38 -7 0 -19 6 -26
13 -11 10 -13 9 -8 -6 4 -11 3 -16 -3 -12 -14 9 -12 42 3 49 6 3 0 4 -15 1
-16 -3 -28 -2 -28 3 0 5 -16 7 -35 6 -42 -4 -45 3 -9 16 19 8 31 7 41 -1 11
-9 17 -9 26 1 9 10 9 11 0 6 -24 -13 -13 12 13 33 23 18 24 21 8 22 -14 1 -13
3 6 9 35 11 78 12 84 1z m-1149 -12 c11 -17 -1 -21 -15 -4 -8 9 -8 15 -2 15 6
0 14 -5 17 -11z m-281 -15 c3 -8 2 -12 -4 -9 -6 3 -10 10 -10 16 0 14 7 11 14
-7z m45 -19 c20 -34 19 -71 -1 -59 -5 3 -7 13 -4 21 3 8 -1 24 -9 36 -14 21
-19 37 -11 37 2 0 13 -16 25 -35z m1236 25 c-3 -5 -14 -10 -23 -9 -14 0 -13 2
3 9 27 11 27 11 20 0z m-5 -24 c0 -11 -19 -15 -25 -6 -3 5 1 10 9 10 9 0 16
-2 16 -4z m-1054 -93 c-2 -2 -14 -1 -27 2 -17 4 -24 14 -25 31 l-2 26 29 -28
c16 -15 27 -29 25 -31z m124 47 c0 -5 13 -7 30 -3 17 3 30 3 30 0 0 -12 -39
-27 -54 -21 -17 6 -30 34 -16 34 6 0 10 -4 10 -10z m710 0 c0 -5 -2 -10 -4
-10 -3 0 -8 5 -11 10 -3 6 -1 10 4 10 6 0 11 -4 11 -10z m-540 -15 c0 -12 5
-12 24 -4 20 9 27 8 45 -10 12 -12 27 -21 34 -21 7 0 19 -6 26 -12 15 -16 33
-17 44 -3 5 5 7 -4 4 -22 -2 -20 1 -34 10 -37 7 -3 10 -12 7 -21 -3 -8 -1 -15
5 -15 7 0 7 -8 1 -26 -14 -37 -13 -44 11 -44 13 0 20 6 18 18 -5 54 11 84 25
45 8 -21 -12 -83 -27 -80 -6 1 -12 -5 -14 -14 -3 -12 3 -17 24 -17 40 0 47 7
27 29 -9 10 -12 19 -7 19 9 0 35 48 39 73 1 4 2 10 3 13 0 4 8 1 16 -6 12 -10
18 -9 32 7 10 10 14 13 9 6 -5 -8 -4 -13 3 -13 25 0 54 -38 47 -63 -3 -13 -3
-27 1 -30 3 -4 7 -21 8 -38 2 -17 9 -42 16 -55 17 -32 9 -37 -40 -24 -22 6
-61 11 -86 12 -25 0 -48 4 -51 9 -3 5 -14 9 -25 9 -10 0 -19 5 -19 10 0 6 -5
10 -11 10 -6 0 -9 -7 -5 -15 3 -10 -1 -15 -14 -15 -10 0 -25 7 -34 15 -8 8
-21 15 -29 15 -8 0 -20 7 -27 15 -7 9 -19 14 -27 11 -24 -10 -89 69 -84 102 1
6 -5 12 -13 12 -9 0 -23 14 -31 31 -16 30 -16 31 6 24 14 -5 19 -4 15 4 -4 6
-13 11 -21 11 -7 0 -15 7 -19 15 -3 8 -1 15 4 15 6 0 10 7 10 15 0 8 5 15 11
15 6 0 9 6 6 14 -7 19 1 26 30 26 14 0 23 -6 23 -15z m506 -12 c-10 -10 -19 5
-10 18 6 11 8 11 12 0 2 -7 1 -15 -2 -18z m-988 -18 c-3 -3 -9 2 -12 12 -6 14
-5 15 5 6 7 -7 10 -15 7 -18z m-25 0 c4 -8 2 -17 -3 -20 -6 -4 -10 0 -10 9 0
8 -6 17 -12 19 -8 4 -7 6 3 6 9 1 19 -6 22 -14z m200 -43 c50 -49 47 -64 -4
-18 -22 20 -51 42 -65 48 -13 6 -24 15 -24 19 0 17 56 -13 93 -49z m1413 16
c-3 -24 -5 -49 -5 -55 -1 -7 -5 -13 -10 -13 -8 0 -5 66 5 98 8 28 15 9 10 -30z
m59 32 c3 -5 2 -10 -4 -10 -5 0 -13 5 -16 10 -3 6 -2 10 4 10 5 0 13 -4 16
-10z m-2050 -20 c10 -11 13 -20 7 -20 -7 0 -12 -6 -12 -14 0 -24 -13 -25 -38
-6 -20 17 -21 22 -10 39 16 26 30 26 53 1z m1920 10 c4 -6 1 -17 -5 -25 -6 -8
-9 -19 -6 -24 4 -5 2 -12 -3 -15 -5 -3 -11 1 -15 9 -3 8 -12 15 -21 15 -8 0
-15 4 -15 9 0 4 11 7 25 6 14 -2 25 1 25 6 0 5 -7 9 -16 9 -8 0 -12 5 -9 10 8
13 32 13 40 0z m-1439 -15 c9 -8 11 -15 6 -15 -5 0 -15 7 -22 15 -7 8 -9 15
-6 15 4 0 14 -7 22 -15z m1279 -5 c3 -5 2 -10 -4 -10 -5 0 -13 5 -16 10 -3 6
-2 10 4 10 5 0 13 -4 16 -10z m-1295 -45 c14 -19 14 -19 -2 -6 -10 7 -18 18
-18 24 0 6 1 8 3 6 1 -2 9 -13 17 -24z m175 5 c10 -11 16 -20 13 -20 -3 0 -13
9 -23 20 -10 11 -16 20 -13 20 3 0 13 -9 23 -20z m685 16 c0 -3 -4 -8 -10 -11
-5 -3 -10 -1 -10 4 0 6 5 11 10 11 6 0 10 -2 10 -4z m-750 -31 c0 -12 -29 -3
-34 10 -4 13 -2 14 14 5 11 -6 20 -13 20 -15z m850 22 c0 -2 -10 -12 -22 -23
l-23 -19 19 23 c18 21 26 27 26 19z m-995 -27 c3 -5 1 -10 -4 -10 -6 0 -11 5
-11 10 0 6 2 10 4 10 3 0 8 -4 11 -10z m895 0 c0 -5 -5 -10 -11 -10 -5 0 -7 5
-4 10 3 6 8 10 11 10 2 0 4 -4 4 -10z m195 -20 c3 -5 1 -10 -4 -10 -6 0 -11 5
-11 10 0 6 2 10 4 10 3 0 8 -4 11 -10z m550 0 c-3 -5 -13 -10 -21 -10 -8 0
-14 5 -14 10 0 6 9 10 21 10 11 0 17 -4 14 -10z m-1340 -70 c-4 -21 -13 -44
-21 -51 -8 -6 -14 -29 -14 -50 0 -22 -4 -39 -10 -39 -5 0 -10 -10 -10 -22 -1
-22 -1 -23 -15 -4 -18 23 -19 11 -4 -33 13 -37 13 -37 39 -11 13 13 20 33 20
59 0 38 19 59 41 45 5 -3 9 0 9 6 0 7 9 23 20 37 17 22 21 23 26 9 18 -46 -74
-258 -114 -264 -17 -3 -20 1 -17 24 3 29 -14 54 -37 54 -10 0 -9 -3 2 -10 12
-8 11 -10 -6 -10 -12 0 -26 11 -34 26 -12 21 -12 30 -1 57 8 18 13 48 12 68
-1 31 2 36 21 35 14 -1 23 5 23 14 0 8 7 20 15 26 8 7 15 25 15 41 0 16 7 36
15 45 22 23 33 -2 25 -52z m960 63 c-16 -3 -36 -10 -43 -15 -9 -8 -11 -7 -6 6
4 11 17 16 43 15 34 -2 34 -2 6 -6z m285 -3 c0 -5 -2 -10 -4 -10 -3 0 -8 5
-11 10 -3 6 -1 10 4 10 6 0 11 -4 11 -10z m-1680 -55 c7 -8 18 -15 24 -15 6 0
23 -14 38 -30 l26 -30 -31 -37 c-81 -93 -160 -172 -168 -167 -5 3 -7 10 -3 15
3 6 -3 13 -15 16 -12 3 -25 19 -31 38 -6 18 -17 36 -25 39 -8 3 -15 13 -15 22
0 10 -5 14 -14 11 -10 -4 -13 -1 -9 9 3 7 0 14 -7 14 -7 0 -10 7 -6 15 3 9 0
15 -10 15 -11 0 -15 6 -11 20 3 11 1 18 -4 14 -5 -3 -9 -1 -9 5 0 12 16 17
140 41 110 23 115 23 130 5z m1755 6 c7 -12 -12 -24 -25 -16 -11 7 -4 25 10
25 5 0 11 -4 15 -9z m-210 -11 c3 -6 -1 -7 -9 -4 -18 7 -21 14 -7 14 6 0 13
-4 16 -10z m115 -15 c0 -9 -7 -18 -15 -21 -8 -4 -12 -10 -9 -15 3 -5 0 -9 -5
-9 -13 0 -13 2 -1 34 10 28 30 35 30 11z m-549 -72 c6 -15 13 -22 16 -15 7 18
23 4 23 -19 0 -17 3 -18 20 -9 11 6 18 15 15 21 -4 5 -4 9 -1 9 3 0 13 -14 22
-31 15 -30 15 -32 -2 -24 -11 4 -32 9 -48 11 -32 4 -56 20 -56 38 0 18 -37 38
-43 23 -3 -7 -6 -4 -6 6 -1 9 4 26 11 36 12 19 12 19 25 1 7 -10 18 -31 24
-47z m383 28 c4 -5 -3 -7 -14 -4 -23 6 -26 13 -6 13 8 0 17 -4 20 -9z m43 -17
c-3 -3 -12 -4 -19 -1 -8 3 -5 6 6 6 11 1 17 -2 13 -5z m88 -4 c3 -5 1 -10 -4
-10 -6 0 -11 5 -11 10 0 6 2 10 4 10 3 0 8 -4 11 -10z m-535 -40 c8 -16 8 -18
-4 -14 -17 6 -30 34 -16 34 5 0 14 -9 20 -20z m530 10 c0 -5 -2 -10 -4 -10 -3
0 -8 5 -11 10 -3 6 -1 10 4 10 6 0 11 -4 11 -10z m-374 -21 c19 -22 19 -22 -3
-10 -13 6 -23 16 -23 21 0 15 5 12 26 -11z m332 -68 c-18 -33 -39 -61 -47 -61
-10 0 -9 6 7 23 11 12 20 24 19 27 -1 3 7 25 17 48 12 26 23 39 29 33 5 -5 -4
-32 -25 -70z m-1480 57 c-3 -7 -15 -15 -28 -16 -21 -3 -22 -2 -11 12 16 19 44
21 39 4z m111 -20 c11 -10 13 -10 7 0 -4 6 -3 12 3 12 11 0 9 -60 -3 -78 -4
-6 -9 -28 -12 -49 -4 -37 -32 -72 -43 -55 -3 5 -15 12 -25 15 -10 4 -16 10
-12 14 3 3 -3 12 -14 20 -10 7 -17 20 -14 27 3 9 -5 16 -22 20 -23 6 -25 9
-13 21 21 20 102 64 120 65 8 0 21 -6 28 -12z m375 -13 c3 -8 1 -15 -4 -15 -6
0 -10 7 -10 15 0 8 2 15 4 15 2 0 6 -7 10 -15z m880 -10 c11 -8 16 -15 10 -15
-5 0 -18 7 -28 15 -11 8 -16 15 -10 15 5 0 18 -7 28 -15z m-864 -25 c0 -5 -5
-10 -11 -10 -5 0 -7 5 -4 10 3 6 8 10 11 10 2 0 4 -4 4 -10z m810 -12 c0 -6
-6 -5 -15 2 -8 7 -15 14 -15 16 0 2 7 1 15 -2 8 -4 15 -11 15 -16z m-652 -10
c-3 -7 4 -22 15 -33 10 -11 23 -29 28 -40 6 -14 7 -5 3 25 -6 40 -5 43 10 31
9 -7 16 -22 16 -32 0 -11 5 -19 10 -19 6 0 10 -15 9 -32 0 -18 -3 -27 -6 -20
-8 21 -33 13 -43 -13 -5 -14 -12 -25 -15 -25 -11 0 -44 43 -61 78 -4 7 1 21
11 32 9 10 14 24 10 29 -3 6 -3 16 0 21 9 14 17 12 13 -2z m-451 -27 c10 -16
9 -20 -3 -25 -23 -9 -24 -8 -24 19 0 30 11 32 27 6z m-327 -5 c0 -2 -11 -11
-25 -20 -14 -9 -25 -13 -25 -8 0 5 10 14 23 20 27 13 27 13 27 8z m1419 -35
c-6 -2 -21 7 -33 19 l-21 23 33 -19 c18 -10 28 -20 21 -23z m-405 14 c4 -10
-1 -15 -14 -15 -20 0 -26 11 -13 23 10 11 20 8 27 -8z m-958 -46 c-14 -17 -26
-35 -26 -40 0 -6 -5 -7 -11 -3 -7 4 2 19 22 40 41 42 49 44 15 3z m1444 -9 c0
-5 -5 -10 -11 -10 -5 0 -8 -4 -5 -9 3 -5 -1 -14 -8 -20 -11 -9 -16 -9 -22 0
-4 7 -3 9 3 6 6 -4 14 4 17 18 6 24 26 36 26 15z m-1379 -66 c-11 -14 -18 -30
-15 -35 3 -5 -2 -6 -10 -3 -13 5 -11 12 11 39 15 19 29 32 31 30 2 -2 -5 -16
-17 -31z m1194 18 c-3 -3 -11 0 -18 7 -9 10 -8 11 6 5 10 -3 15 -9 12 -12z
m-1127 -64 c-13 -18 -24 -35 -25 -37 -1 -1 -6 0 -11 3 -10 6 36 66 51 66 4 0
-3 -15 -15 -32z m1232 22 c0 -5 -7 -10 -16 -10 -9 0 -12 -5 -8 -12 4 -7 3 -8
-4 -4 -7 4 -12 1 -12 -7 0 -13 -63 -77 -74 -77 -3 0 -3 8 -1 18 1 9 10 16 18
16 9 -1 15 3 14 9 -1 6 4 11 11 12 6 0 11 3 10 7 -4 8 43 58 54 58 4 0 8 -4 8
-10z m-751 -21 c-8 -5 -21 -9 -29 -9 -12 1 -11 4 4 15 10 8 23 12 29 8 5 -3 3
-9 -4 -14z m-379 -19 c41 -23 32 -27 -10 -5 -28 15 -29 14 -47 -15 -24 -42
-36 -38 -16 5 19 40 25 41 73 15z m310 -10 c8 -5 11 -10 5 -10 -5 0 -17 5 -25
10 -8 5 -10 10 -5 10 6 0 17 -5 25 -10z m518 -9 c13 5 27 7 30 5 8 -8 -50 -27
-65 -22 -7 3 -13 11 -13 18 0 9 3 9 11 1 8 -8 19 -9 37 -2z m131 -92 c-29 -23
-40 -24 -33 -4 4 8 10 12 15 9 5 -3 12 2 15 10 3 9 11 13 16 10 6 -4 1 -14
-13 -25z m-265 10 c9 -9 -45 -9 -61 -1 -10 6 -3 8 21 8 19 -1 37 -4 40 -7z
m-112 -34 c3 -13 1 -22 -3 -19 -9 5 -13 44 -5 44 2 0 6 -11 8 -25z m-144 -20
c-3 -3 -9 2 -12 12 -6 14 -5 15 5 6 7 -7 10 -15 7 -18z m457 4 c-10 -16 -175
-78 -191 -72 -11 4 -15 3 -11 -4 7 -12 -42 -25 -57 -15 -9 5 127 52 152 52 6
0 12 4 12 8 0 11 61 40 82 39 9 -1 15 -4 13 -8z m-801 -65 c9 -8 20 -12 26 -9
5 3 10 1 10 -4 0 -14 -4 -14 -52 1 -26 8 -35 14 -26 20 18 11 25 10 42 -8z
m83 -29 c0 -8 -4 -12 -9 -9 -5 3 -6 10 -3 15 9 13 12 11 12 -6z m429 -8 c6 -6
-43 -17 -81 -18 -11 0 -58 -3 -104 -5 -57 -4 -81 -2 -77 5 4 6 28 9 53 8 25
-2 71 2 102 9 57 12 96 12 107 1z m-341 -7 c-3 -5 -13 -10 -21 -10 -8 0 -12 5
-9 10 3 6 13 10 21 10 8 0 12 -4 9 -10z"/>
<path d="M884 1755 c-10 -8 -14 -15 -8 -15 6 0 17 7 24 15 16 19 9 19 -16 0z"/>
<path d="M593 1664 c-3 -8 -12 -13 -19 -10 -9 3 -14 -1 -14 -12 0 -15 -2 -15
-10 -2 -5 8 -10 11 -10 5 0 -12 20 -43 20 -31 0 5 7 3 15 -4 18 -15 40 -3 26
14 -6 7 -8 16 -4 20 8 8 13 36 7 36 -3 0 -7 -7 -11 -16z"/>
<path d="M790 1642 c-58 -39 -66 -70 -10 -42 22 11 40 22 40 24 0 3 3 11 6 20
8 20 -4 20 -36 -2z"/>
<path d="M707 1609 c-29 -30 -33 -38 -15 -29 29 15 68 51 68 62 0 17 -16 7
-53 -33z"/>
<path d="M626 1537 c3 -10 9 -15 12 -12 3 3 0 11 -7 18 -10 9 -11 8 -5 -6z"/>
<path d="M1145 1570 c-3 -5 -2 -10 4 -10 5 0 13 5 16 10 3 6 2 10 -4 10 -5 0
-13 -4 -16 -10z"/>
<path d="M1116 1385 c4 -8 10 -12 15 -9 14 8 10 24 -6 24 -9 0 -12 -6 -9 -15z"/>
<path d="M1792 1608 c-19 -19 -14 -29 8 -16 20 13 27 28 12 28 -4 0 -13 -5
-20 -12z"/>
<path d="M1770 1546 c0 -8 -6 -17 -12 -19 -8 -3 -6 -6 5 -6 11 -1 17 6 17 19
0 11 -2 20 -5 20 -3 0 -5 -6 -5 -14z"/>
<path d="M1925 1380 c3 -5 8 -10 11 -10 2 0 4 5 4 10 0 6 -5 10 -11 10 -5 0
-7 -4 -4 -10z"/>
<path d="M1903 1330 c-11 -16 -10 -18 2 -14 8 4 15 12 15 20 0 19 -3 18 -17
-6z"/>
<path d="M490 1370 c0 -5 5 -10 11 -10 5 0 7 5 4 10 -3 6 -8 10 -11 10 -2 0
-4 -4 -4 -10z"/>
<path d="M543 1288 c1 -20 5 -34 10 -31 10 6 9 35 -3 53 -6 10 -8 4 -7 -22z"/>
<path d="M460 1226 c0 -22 3 -27 11 -19 8 8 8 16 0 30 -9 16 -10 14 -11 -11z"/>
<path d="M555 1240 c-3 -5 -1 -10 4 -10 6 0 11 5 11 10 0 6 -2 10 -4 10 -3 0
-8 -4 -11 -10z"/>
<path d="M1045 950 c3 -5 8 -10 11 -10 2 0 4 5 4 10 0 6 -5 10 -11 10 -5 0 -7
-4 -4 -10z"/>
<path d="M896 591 c-4 -5 -2 -12 3 -15 5 -4 12 -2 15 3 4 5 2 12 -3 15 -5 4
-12 2 -15 -3z"/>
<path d="M880 2365 c-47 -18 -27 -18 30 -1 25 8 36 15 25 15 -11 0 -36 -7 -55
-14z"/>
</g>
</svg>
